<svg xmlns="http://www.w3.org/2000/svg" width="1448" height="1086" viewBox="0 0 1448 1086" role="img" aria-labelledby="t d"><title id="t">Vasopressores comparados</title><desc id="d">Tabela comparativa de vasopressores por receptor, RVS, FC, contratilidade, pré-carga, riscos e uso preferencial.</desc><defs><style>.bg{fill:#07090d}.head{fill:#111821;stroke:#b98d4b;stroke-width:2}.cell{fill:#f5ecde;stroke:#273340;stroke-width:2}.dark{fill:#10151c;stroke:#273340;stroke-width:2}.txt{font-family:system-ui,-apple-system,Segoe UI,sans-serif;fill:#f5ecde}.ink{font-family:system-ui,-apple-system,Segoe UI,sans-serif;fill:#171512}.h{font-weight:800}.big{font-size:58px}.mid{font-size:28px}.small{font-size:22px}.tiny{font-size:18px}</style></defs><rect class="bg" width="1448" height="1086"/><text x="70" y="64" class="txt h big">CHOCA</text><text x="360" y="64" class="txt h big">VASOPRESSORES <tspan fill="#e24b47">COMPARADOS</tspan></text><text x="420" y="115" class="txt mid" fill="#d5a64d">a mesma PAM pode ser resgatada por mecanismos diferentes</text><g transform="translate(25 145)"><rect class="head" width="1398" height="75" rx="20"/><text x="45" y="48" class="txt h small">FÁRMACO</text><text x="285" y="35" class="txt h tiny">RECEPTOR / ALVO</text><text x="500" y="35" class="txt h tiny">RVS</text><text x="660" y="35" class="txt h tiny">FC</text><text x="805" y="35" class="txt h tiny">CONTRATILIDADE</text><text x="1020" y="35" class="txt h tiny">PRÉ-CARGA</text><text x="1190" y="35" class="txt h tiny">ONDE BRILHA</text></g><g transform="translate(25 235)"><rect class="dark" width="240" height="145"/><text x="30" y="50" class="txt h mid" fill="#e24b47">NORADRENALINA</text><text x="30" y="95" class="txt tiny">catecolamina endógena</text><rect class="cell" x="240" width="210" height="145"/><text x="265" y="45" class="ink small">α1 principal</text><text x="265" y="80" class="ink small">β1 moderado</text><rect class="cell" x="450" width="155" height="145"/><text x="492" y="72" class="ink h mid">↑↑↑</text><rect class="cell" x="605" width="145" height="145"/><text x="635" y="72" class="ink h mid">↑ / ↔</text><rect class="cell" x="750" width="210" height="145"/><text x="820" y="72" class="ink h mid">↑</text><rect class="cell" x="960" width="190" height="145"/><text x="1030" y="72" class="ink h mid">↑↑</text><rect class="dark" x="1150" width="248" height="145"/><text x="1175" y="50" class="txt h small" fill="#e24b47">séptico / vasoplégico</text><text x="1175" y="95" class="txt tiny">1ª escolha p/ PAM</text></g><g transform="translate(25 390)"><rect class="dark" width="240" height="145"/><text x="30" y="50" class="txt h mid" fill="#e08a2e">ADRENALINA</text><text x="30" y="95" class="txt tiny">α + β potente</text><rect class="cell" x="240" width="210" height="145"/><text x="265" y="45" class="ink small">β1 β2 α1</text><text x="265" y="80" class="ink small">dose importa</text><rect class="cell" x="450" width="155" height="145"/><text x="486" y="72" class="ink h mid">↑/↑↑</text><rect class="cell" x="605" width="145" height="145"/><text x="645" y="72" class="ink h mid">↑↑</text><rect class="cell" x="750" width="210" height="145"/><text x="820" y="72" class="ink h mid">↑↑</text><rect class="cell" x="960" width="190" height="145"/><text x="1035" y="72" class="ink h mid">↑</text><rect class="dark" x="1150" width="248" height="145"/><text x="1175" y="48" class="txt h small" fill="#e08a2e">baixo débito grave</text><text x="1175" y="92" class="txt tiny">lactato/taquiarritmia</text></g><g transform="translate(25 545)"><rect class="dark" width="240" height="145"/><text x="30" y="50" class="txt h mid" fill="#6aa354">FENILEFRINA</text><text x="30" y="95" class="txt tiny">α1 seletiva</text><rect class="cell" x="240" width="210" height="145"/><text x="265" y="60" class="ink small">α1</text><rect class="cell" x="450" width="155" height="145"/><text x="492" y="72" class="ink h mid">↑↑↑</text><rect class="cell" x="605" width="145" height="145"/><text x="630" y="72" class="ink h mid">↓ / ↔</text><rect class="cell" x="750" width="210" height="145"/><text x="810" y="72" class="ink h mid">↔ ou ↓</text><rect class="cell" x="960" width="190" height="145"/><text x="1030" y="72" class="ink h mid">↑↑</text><rect class="dark" x="1150" width="248" height="145"/><text x="1175" y="48" class="txt h small" fill="#6aa354">taquicardia + hipoPA</text><text x="1175" y="92" class="txt tiny">não é inotrópico</text></g><g transform="translate(25 700)"><rect class="dark" width="240" height="145"/><text x="30" y="50" class="txt h mid" fill="#48aeca">VASOPRESSINA</text><text x="30" y="95" class="txt tiny">não adrenérgica</text><rect class="cell" x="240" width="210" height="145"/><text x="265" y="45" class="ink small">V1a principal</text><text x="265" y="80" class="ink small">V2 renal</text><rect class="cell" x="450" width="155" height="145"/><text x="500" y="72" class="ink h mid">↑↑</text><rect class="cell" x="605" width="145" height="145"/><text x="650" y="72" class="ink h mid">↔</text><rect class="cell" x="750" width="210" height="145"/><text x="835" y="72" class="ink h mid">↔</text><rect class="cell" x="960" width="190" height="145"/><text x="1030" y="72" class="ink h mid">↑↑</text><rect class="dark" x="1150" width="248" height="145"/><text x="1175" y="45" class="txt h small" fill="#48aeca">refratário</text><text x="1175" y="88" class="txt tiny">poupador de NA</text></g><g transform="translate(25 855)"><rect class="dark" width="240" height="145"/><text x="30" y="50" class="txt h mid" fill="#a86bd8">ANGIOTENSINA II</text><text x="30" y="95" class="txt tiny">AT1</text><rect class="cell" x="240" width="210" height="145"/><text x="265" y="60" class="ink small">AT1</text><rect class="cell" x="450" width="155" height="145"/><text x="500" y="72" class="ink h mid">↑↑</text><rect class="cell" x="605" width="145" height="145"/><text x="650" y="72" class="ink h mid">↔</text><rect class="cell" x="750" width="210" height="145"/><text x="805" y="72" class="ink h mid">↔/↑ leve</text><rect class="cell" x="960" width="190" height="145"/><text x="1045" y="72" class="ink h mid">↑</text><rect class="dark" x="1150" width="248" height="145"/><text x="1175" y="45" class="txt h small" fill="#a86bd8">salvamento</text><text x="1175" y="88" class="txt tiny">refratário guiado</text></g><text x="50" y="1045" class="txt small">nota: titular por perfusão clínica, diurese, lactato e fenótipo — não só pelo número da pressão.</text></svg>